<svg width="62" height="63" viewBox="0 0 62 63" fill="none" xmlns="http://www.w3.org/2000/svg">
<path d="M34.1384 52.9635C34.6454 53.4476 35.4621 53.4476 35.969 52.9635C36.2224 52.7215 36.3492 52.4055 36.3492 52.0895C36.3492 51.7735 36.2224 51.4575 35.969 51.2155L32.3009 47.7194V46.1596L32.4276 45.7158L34.1314 47.3429C34.6383 47.8269 35.455 47.8269 35.9619 47.3429C36.2154 47.1008 36.3421 46.7848 36.3421 46.4688C36.3421 46.1528 36.2154 45.8368 35.9619 45.5948L33.2161 42.9727L34.7158 37.7756L40.1792 39.1337L41.186 42.7172C41.3691 43.3761 42.0802 43.7661 42.7701 43.5913C43.4601 43.4165 43.8685 42.7374 43.6854 42.0785L43.0588 39.8531L43.4601 39.954C43.4601 39.954 43.5024 39.954 43.5235 39.9674L44.9457 40.754L46.2834 45.5343C46.4664 46.1932 47.1775 46.5831 47.8675 46.4083C48.5575 46.2335 48.9658 45.5545 48.7828 44.8956L47.6351 40.8145L51.9087 39.7186C52.4861 39.5707 52.8663 39.0732 52.8663 38.5286C52.8663 38.4211 52.8522 38.3135 52.824 38.2059C52.641 37.547 51.9299 37.1571 51.2399 37.3319L46.2341 38.616L44.8189 37.8361L44.481 37.5067L46.8114 36.9083C47.3887 36.7604 47.7689 36.2629 47.7689 35.7183C47.7689 35.6107 47.7548 35.5031 47.7267 35.3956C47.5436 34.7367 46.8325 34.3467 46.1426 34.5215L42.3899 35.483L38.4261 31.644L42.3899 27.805L46.1426 28.7664C46.8325 28.9412 47.5436 28.5513 47.7267 27.8924C47.7548 27.7848 47.7689 27.6772 47.7689 27.5697C47.7689 27.0251 47.3887 26.5276 46.8114 26.3796L44.481 25.7813L44.8189 25.4518L46.2341 24.6719L51.2399 25.9494C51.9299 26.1242 52.641 25.7342 52.824 25.0753C52.8522 24.9678 52.8663 24.8602 52.8663 24.7526C52.8663 24.208 52.4861 23.7105 51.9087 23.5626L47.6351 22.4667L48.7828 18.3857C48.9658 17.72 48.5575 17.0477 47.8675 16.8729C47.1775 16.6981 46.4664 17.0881 46.2834 17.7469L44.9457 22.5272L43.5305 23.3071L43.0588 23.4214L43.6854 21.196C43.8755 20.5371 43.4601 19.8581 42.7701 19.6832C42.0802 19.5084 41.3691 19.8984 41.186 20.5573L40.1792 24.1408L34.7158 25.4989L33.2161 20.3018L35.9619 17.6797C36.2154 17.4377 36.3421 17.1217 36.3421 16.8057C36.3421 16.4897 36.2154 16.1737 35.9619 15.9317C35.455 15.4476 34.6383 15.4476 34.1314 15.9317L32.4276 17.5587L32.3009 17.115V15.5551L35.969 12.059C36.2224 11.817 36.3492 11.501 36.3492 11.185C36.3492 10.869 36.2224 10.553 35.969 10.311C35.4621 9.82691 34.6454 9.82691 34.1384 10.311L31.0125 13.2961L27.8794 10.2975C27.3725 9.81346 26.5558 9.81346 26.0489 10.2975C25.542 10.7816 25.542 11.5615 26.0489 12.0456L29.71 15.5417V17.1015L29.5832 17.5452L27.8794 15.9182C27.3725 15.4341 26.5558 15.4341 26.0489 15.9182C25.542 16.4023 25.542 17.1822 26.0489 17.6663L28.7947 20.2883L27.2951 25.4854L21.8316 24.1273L20.8248 20.5438C20.6418 19.8849 19.9307 19.495 19.2407 19.6698C18.5507 19.8446 18.1353 20.5169 18.3254 21.1825L18.952 23.4079L18.4803 23.2937L17.0652 22.5138L15.7204 17.7335C15.5374 17.0746 14.8263 16.6847 14.1363 16.8595C13.4463 17.0343 13.038 17.7133 13.221 18.3722L14.3686 22.4532L10.095 23.5491C9.40506 23.7239 8.99671 24.403 9.17977 25.0619C9.36282 25.7208 10.0739 26.1107 10.7639 25.9359L15.7697 24.6585L17.1849 25.4384L17.5228 25.7678L15.1924 26.3662C14.5024 26.541 14.0941 27.2201 14.2771 27.8789C14.4602 28.5378 15.1713 28.9278 15.8612 28.753L19.6138 27.7915L23.5777 31.6305L19.6138 35.4695L15.8612 34.5081C15.1713 34.3333 14.4602 34.7232 14.2771 35.3821C14.0941 36.041 14.5024 36.7201 15.1924 36.8949L17.5228 37.4932L17.1849 37.8227L15.7697 38.6026L10.7639 37.3184C10.0739 37.1436 9.36282 37.5336 9.17977 38.1925C8.98967 38.8513 9.40506 39.5304 10.095 39.7052L14.3686 40.8011L13.221 44.8821C13.0309 45.541 13.4463 46.2201 14.1363 46.3949C14.8263 46.5697 15.5374 46.1797 15.7204 45.5208L17.0652 40.7406L18.4803 39.9607L18.945 39.8464L18.3184 42.0718C18.1283 42.7374 18.5437 43.4097 19.2336 43.5845C19.9236 43.7593 20.6347 43.3694 20.8178 42.7105L21.8246 39.127L27.288 37.7689L28.7876 42.966L26.0418 45.5881C25.5349 46.0722 25.5349 46.8521 26.0418 47.3361C26.5488 47.8202 27.3655 47.8202 27.8724 47.3361L29.5762 45.7091L29.7029 46.1528V47.7126L26.0418 51.2087C25.5349 51.6928 25.5349 52.4727 26.0418 52.9568C26.5488 53.4409 27.3655 53.4409 27.8724 52.9568L30.9984 49.9717L34.1244 52.9568L34.1384 52.9635ZM32.3009 36.8612L31.0054 41.339L29.71 36.8545L29.4424 35.9402C29.2523 35.288 28.5553 34.9048 27.8724 35.0729L26.9149 35.3149L22.1977 36.4847L25.6194 33.1702L26.3164 32.4978C26.8163 32.0138 26.8163 31.2473 26.3164 30.7632L25.6194 30.0909L22.1977 26.7763L26.9078 27.9462L27.8724 28.1882C28.5553 28.3563 29.2594 27.9731 29.4424 27.3209L29.71 26.4065L31.0054 21.9221L32.3009 26.3998L32.5684 27.3209C32.7585 27.9731 33.4555 28.3563 34.1384 28.1882L35.103 27.9462L39.8202 26.7763L36.3985 30.0909L35.7014 30.7699C35.2016 31.254 35.2016 32.0205 35.7014 32.5046L36.3985 33.1836L39.8202 36.4915L35.103 35.3216L34.1455 35.0863C33.4626 34.9182 32.7585 35.3014 32.5755 35.9536L32.3079 36.8747L32.3009 36.8612Z" fill="#83B3DE"/>
</svg>
