<svg width="62" height="63" viewBox="0 0 62 63" fill="none" xmlns="http://www.w3.org/2000/svg">
<path d="M57.1309 43.898C57.1629 44.6099 56.6099 45.205 55.9226 45.205H39.3554C38.7594 45.205 38.2478 44.7535 38.1618 44.1404C37.6651 40.5647 34.7008 37.8184 31.1193 37.8184C31.0883 37.8184 31.0576 37.8184 31.0266 37.8199C27.1388 37.8702 24.003 41.1572 24.003 45.205H6.07725C5.39001 45.205 4.83694 44.6099 4.869 43.898C5.52662 29.5081 16.9737 18.0514 30.9998 18.0514H31.0266C45.0404 18.0655 56.4729 29.5178 57.1309 43.898Z" fill="#F28B8B"/>
<path d="M52.4295 45.205H39.3552C38.7593 45.205 38.2477 44.7536 38.1616 44.1405C37.665 40.5648 34.7006 37.8185 31.1191 37.8185C31.0881 37.8185 31.0574 37.8185 31.0264 37.8199C27.4864 37.8659 24.5691 40.5955 24.0767 44.1405C23.9906 44.7536 23.4793 45.205 22.8831 45.205H10.0493C10.0493 33.1308 19.4225 23.3298 31.0264 23.2111C31.0975 23.2097 31.1672 23.2097 31.2387 23.2097C42.9423 23.2097 52.4295 33.0571 52.4295 45.205Z" fill="#F6C1A3"/>
<path d="M47.3096 45.2046H39.3554C38.7595 45.2046 38.2479 44.7531 38.1618 44.14C37.6652 40.5643 34.7009 37.8181 31.1194 37.8181C31.0884 37.8181 31.0577 37.8181 31.0267 37.8195C27.4866 37.8654 24.5694 40.595 24.0769 44.14C23.9908 44.7531 23.4796 45.2046 22.8833 45.2046H14.6312C14.6312 35.8379 21.9462 28.2452 30.9702 28.2452C30.989 28.2452 31.0079 28.2452 31.0267 28.2467C40.0253 28.2774 47.3096 35.8575 47.3096 45.2046Z" fill="#AED292"/>
<path d="M43.0247 45.205H39.3557C38.7598 45.205 38.2482 44.7536 38.1621 44.1405C37.6655 40.5648 34.7012 37.8185 31.1197 37.8185C31.0886 37.8185 31.058 37.8185 31.027 37.82C27.4869 37.8659 24.5696 40.5955 24.0772 44.1405C24.0343 44.4469 24.0026 44.7641 24.0033 45.205C23.6681 45.2159 23.1816 45.205 22.8836 45.205H19.2146C19.2146 38.4121 24.4944 32.8997 31.027 32.8494C31.058 32.848 31.0886 32.848 31.1197 32.848C37.6937 32.848 43.0247 38.3799 43.0247 45.205Z" fill="#84D2D2"/>
</svg>
