<svg width="62" height="63" viewBox="0 0 62 63" fill="none" xmlns="http://www.w3.org/2000/svg">
<path d="M47.8967 26.242C47.6395 25.8298 47.1367 25.5933 46.5178 25.5933H33.2141L37.0762 7.62882C37.1381 7.33659 37.1845 6.90922 36.8616 6.5697C36.6643 6.36193 36.3742 6.24368 36.0667 6.24368C35.4459 6.24368 35.092 6.69639 34.9605 6.86699L14.2479 33.4869C13.8978 33.9379 13.8417 34.4346 14.0932 34.8501C14.3446 35.2656 14.8474 35.5055 15.4701 35.5055H28.3L24.3547 55.6474C24.2986 55.9379 24.2599 56.3636 24.581 56.6964C24.7782 56.9008 25.0645 57.0173 25.3681 57.0173C26.0024 57.0173 26.3622 56.5308 26.4801 56.372L47.7729 27.6052C48.1094 27.1508 48.1539 26.6541 47.8967 26.242Z" fill="#84D2D2"/>
</svg>
