<svg width="62" height="63" viewBox="0 0 62 63" fill="none" xmlns="http://www.w3.org/2000/svg">
<path d="M28.7329 27.0366H10.7363C9.83172 27.0366 9.09888 26.3551 9.09888 25.5138C9.09888 24.6725 9.83172 23.991 10.7363 23.991H28.7329C31.8477 23.991 34.3818 21.6343 34.3818 18.7377C34.3818 15.841 31.8477 13.4843 28.7329 13.4843C25.6182 13.4843 23.0841 15.841 23.0841 18.7377C23.0841 19.5789 22.3512 20.2605 21.4466 20.2605C20.542 20.2605 19.8092 19.5789 19.8092 18.7377C19.8092 14.1619 23.8126 10.4388 28.7329 10.4388C33.6532 10.4388 37.6567 14.1619 37.6567 18.7377C37.6567 23.3135 33.6532 27.0366 28.7329 27.0366Z" fill="#F6A576" stroke="#F6A576" strokeWidth="0.25"/>
<path d="M48.854 33.3859H6.00048C5.09588 33.3859 4.36304 32.7044 4.36304 31.8631C4.36304 31.0219 5.09588 30.3403 6.00048 30.3403H48.854C51.8905 30.3403 54.3604 28.0433 54.3604 25.2194C54.3604 22.3955 51.8899 20.0985 48.854 20.0985C45.8181 20.0985 43.3475 22.3955 43.3475 25.2194C43.3475 26.0607 42.6147 26.7422 41.7101 26.7422C40.8055 26.7422 40.0726 26.0607 40.0726 25.2194C40.0726 20.7164 44.0119 17.0529 48.8546 17.0529C53.6972 17.0529 57.6365 20.7164 57.6365 25.2194C57.6365 29.7225 53.6972 33.3859 48.8546 33.3859H48.854Z" fill="#F6A576" stroke="#F6A576" strokeWidth="0.25"/>
<path d="M39.6989 52.8227C34.979 52.8227 31.1394 49.2519 31.1394 44.8626C31.1394 44.0213 31.8722 43.3398 32.7768 43.3398C33.6814 43.3398 34.4143 44.0213 34.4143 44.8626C34.4143 47.5722 36.7846 49.7766 39.6989 49.7766C42.6131 49.7766 44.9834 47.5722 44.9834 44.8626C44.9834 42.1529 42.6131 39.948 39.6989 39.948H15.8364C14.9318 39.948 14.199 39.2665 14.199 38.4252C14.199 37.584 14.9318 36.9024 15.8364 36.9024H39.6982C44.418 36.9024 48.2577 40.4732 48.2577 44.8626C48.2577 49.2519 44.418 52.8227 39.6982 52.8227H39.6989Z" fill="#F6A576" stroke="#F6A576" strokeWidth="0.25"/>
</svg>
