<svg width="69" height="221" viewBox="0 0 69 221" fill="none" xmlns="http://www.w3.org/2000/svg">
<path d="M4.09582 220.046C1.88669 220.046 0.0958252 218.255 0.0958252 216.046L0.0958258 176.046L8.09582 176.046L8.09582 216.046C8.09582 218.255 6.30496 220.046 4.09582 220.046Z" fill="#83B3DE"/>
<rect x="0.0958252" y="132.046" width="44" height="8" transform="rotate(-90 0.0958252 132.046)" fill="#AED292"/>
<rect x="0.0958252" y="176.046" width="44" height="8" transform="rotate(-90 0.0958252 176.046)" fill="#84D2D2"/>
<rect x="0.0958252" y="88.0461" width="44" height="8" transform="rotate(-90 0.0958252 88.0461)" fill="#F6C1A3"/>
<path d="M0.0958252 44.0461L0.0958257 4.04608C0.0958257 1.83694 1.88669 0.0460777 4.09582 0.0460778C6.30496 0.0460778 8.09582 1.83694 8.09582 4.04608L8.09582 44.0461L0.0958252 44.0461Z" fill="#F28B8B"/>
<path d="M28.9725 16.2754C28.9715 16.3137 28.9852 16.3511 29.0193 16.3859C29.14 16.5087 29.4007 16.6086 29.5947 16.6742C29.7769 16.7358 30.0713 16.8132 30.1441 16.7234C30.1479 16.719 30.1508 16.7138 30.1531 16.7085C30.2364 16.5149 30.3476 15.6857 29.9856 15.5458C29.7693 15.4622 29.4584 15.7676 29.3808 15.8292C29.2782 15.9106 28.9772 16.1038 28.9725 16.2759V16.2754Z" fill="#F28B8B"/>
<path d="M32.8106 19.1999C32.7808 19.2263 32.7619 19.2619 32.7595 19.309C32.7515 19.4749 32.8598 19.717 32.9474 19.8908C33.0292 20.0541 33.1783 20.3027 33.2985 20.2869C33.3047 20.286 33.3103 20.2847 33.316 20.2825C33.5219 20.2006 34.2312 19.687 34.0817 19.3499C33.9922 19.1484 33.5403 19.1598 33.4386 19.1523C33.3042 19.1427 32.9445 19.0811 32.8106 19.1994V19.1999Z" fill="#F28B8B"/>
<path d="M33.3009 23.7913C33.2597 23.7904 33.2195 23.8032 33.1821 23.8348C33.0501 23.9471 32.9426 24.1895 32.8721 24.37C32.8059 24.5394 32.7226 24.8131 32.8191 24.8809C32.8239 24.8844 32.8295 24.8871 32.8352 24.8893C33.043 24.9667 33.935 25.0701 34.0855 24.7335C34.1754 24.5324 33.847 24.2432 33.7807 24.1711C33.6932 24.0756 33.4854 23.7957 33.3004 23.7913H33.3009Z" fill="#F28B8B"/>
<path d="M30.1568 27.3607C30.1284 27.3329 30.0901 27.3153 30.0394 27.3131C29.861 27.3057 29.6008 27.4064 29.4138 27.4878C29.2383 27.564 28.9709 27.7026 28.988 27.8144C28.9889 27.8201 28.9903 27.8254 28.9927 27.8307C29.0807 28.0221 29.6329 28.6818 29.9954 28.5427C30.2122 28.4595 30.1999 28.0393 30.2079 27.9447C30.2183 27.8197 30.2846 27.4852 30.1573 27.3607H30.1568Z" fill="#F28B8B"/>
<path d="M34.165 15.9617C34.4404 15.379 34.2487 15.2004 33.6198 15.4547C33.0009 15.7104 31.9887 16.0686 31.5363 16.2759C31.0891 16.4691 30.9623 16.9924 31.1227 17.3422C31.2978 17.6969 31.754 18.1212 32.1354 18.284C32.5106 18.4323 33.0761 18.3166 33.282 17.8994C33.502 17.4817 33.891 16.5391 34.165 15.9617Z" fill="#F28B8B"/>
<path d="M36.7207 22.3925C37.3586 22.1615 37.3586 21.9093 36.7207 21.6756C36.089 21.4494 35.1005 21.0371 34.623 20.8861C34.1597 20.7286 33.6723 21.0151 33.5199 21.368C33.3742 21.7342 33.3742 22.3336 33.5199 22.7002C33.6728 23.0518 34.1602 23.3418 34.623 23.182C35.0962 23.0315 36.0881 22.6205 36.7207 22.3925Z" fill="#F28B8B"/>
<path d="M33.6383 28.6203C34.2648 28.8764 34.4569 28.6982 34.1834 28.1133C33.9085 27.5377 33.5233 26.5963 33.3004 26.1756C33.0926 25.7597 32.53 25.6418 32.1538 25.791C31.7724 25.9538 31.3162 26.3781 31.1411 26.7328C30.9816 27.0817 31.1061 27.6076 31.5547 27.7991C32.0038 28.0037 33.0174 28.3655 33.6383 28.6203Z" fill="#F28B8B"/>
<path d="M22.1087 22.0461C22.1087 20.5389 22.8269 19.0693 23.9856 18.125C27.1899 15.5147 32.1087 17.8941 32.1087 22.0461C32.1087 23.5528 31.412 25.0283 30.2515 25.9758C27.1024 28.547 22.1087 26.1236 22.1087 22.0461Z" fill="#F28B8B"/>
<path d="M25.2194 27.8166C25.2203 27.7783 25.2066 27.7409 25.1725 27.7062C25.0518 27.5834 24.7911 27.4835 24.5971 27.4179C24.4149 27.3563 24.1205 27.2788 24.0477 27.3686C24.0439 27.373 24.041 27.3783 24.0387 27.3836C23.9554 27.5772 23.8442 28.4063 24.2062 28.5463C24.4225 28.6299 24.7334 28.3245 24.811 28.2629C24.9137 28.1814 25.2146 27.9882 25.2194 27.8162V27.8166Z" fill="#F28B8B"/>
<path d="M24.0354 16.7319C24.0638 16.7596 24.1021 16.7772 24.1527 16.7794C24.3311 16.7869 24.5914 16.6861 24.7783 16.6047C24.9539 16.5286 25.2213 16.3899 25.2042 16.2782C25.2033 16.2724 25.2019 16.2672 25.1995 16.2619C25.1115 16.0704 24.5592 15.4108 24.1968 15.5498C23.98 15.633 23.9923 16.0533 23.9843 16.1479C23.9739 16.2729 23.9076 16.6073 24.0349 16.7319H24.0354Z" fill="#F28B8B"/>
<path d="M27.4685 13.095C27.22 12.5018 26.9489 12.5018 26.6976 13.095C26.4544 13.6825 26.011 14.6018 25.8486 15.0459C25.6792 15.4767 25.9873 15.93 26.3668 16.0717C26.7605 16.2073 27.405 16.2073 27.7992 16.0717C28.1773 15.9296 28.4892 15.4763 28.3174 15.0459C28.1556 14.6058 27.7136 13.6834 27.4685 13.095Z" fill="#F28B8B"/>
<path d="M26.7236 30.997C26.9721 31.5902 27.2432 31.5902 27.4945 30.997C27.7377 30.4095 28.1811 29.4902 28.3434 29.0461C28.5128 28.6153 28.2048 28.162 27.8253 28.0203C27.4316 27.8848 26.787 27.8848 26.3928 28.0203C26.0148 28.1624 25.7029 28.6157 25.8747 29.0461C26.0365 29.4862 26.4785 30.4086 26.7236 30.997Z" fill="#F28B8B"/>
<path d="M20.0268 28.1303C19.7514 28.713 19.943 28.8917 20.5719 28.6373C21.1909 28.3816 22.2031 28.0234 22.6555 27.8161C23.1027 27.6229 23.2295 27.0997 23.0691 26.7498C22.894 26.3951 22.4378 25.9709 22.0564 25.808C21.6811 25.6597 21.1156 25.7755 20.9098 26.1927C20.6898 26.6103 20.3008 27.553 20.0268 28.1303Z" fill="#F28B8B"/>
<path d="M20.5535 15.4719C19.9269 15.2158 19.7348 15.394 20.0083 15.9789C20.2833 16.5545 20.6685 17.4958 20.8913 17.9166C21.0991 18.3324 21.6617 18.4504 22.0379 18.3012C22.4193 18.1384 22.8755 17.7141 23.0506 17.3594C23.2101 17.0104 23.0856 16.4845 22.637 16.2931C22.1879 16.0885 21.1743 15.7267 20.5535 15.4719Z" fill="#F28B8B"/>
<path d="M21.3816 24.8927C21.4114 24.8663 21.4304 24.8306 21.4327 24.7835C21.4408 24.6176 21.3324 24.3756 21.2449 24.2018C21.163 24.0385 21.0139 23.7898 20.8937 23.8057C20.8876 23.8066 20.8819 23.8079 20.8762 23.8101C20.6704 23.8919 19.961 24.4055 20.1106 24.7426C20.2 24.9442 20.6519 24.9327 20.7537 24.9402C20.888 24.9499 21.2477 25.0115 21.3816 24.8931V24.8927Z" fill="#F28B8B"/>
<path d="M20.8909 20.3009C20.932 20.3018 20.9722 20.289 21.0096 20.2573C21.1417 20.1451 21.2491 19.9026 21.3196 19.7222C21.3858 19.5527 21.4691 19.279 21.3726 19.2112C21.3678 19.2077 21.3622 19.2051 21.3565 19.2029C21.1488 19.1254 20.2567 19.022 20.1063 19.3587C20.0164 19.5598 20.3448 19.8489 20.411 19.9211C20.4986 20.0166 20.7063 20.2965 20.8913 20.3009H20.8909Z" fill="#F28B8B"/>
<path d="M17.4709 21.6999C16.8331 21.9309 16.8331 22.1831 17.4709 22.4167C18.1027 22.6429 19.0912 23.0553 19.5687 23.2063C20.032 23.3638 20.5194 23.0773 20.6718 22.7244C20.8175 22.3582 20.8175 21.7588 20.6718 21.3922C20.5189 21.0406 20.0315 20.7506 19.5687 20.9104C19.0955 21.0609 18.1036 21.4719 17.4709 21.6999Z" fill="#F28B8B"/>
<path d="M48.3478 23.206C48.6478 21.202 48.6478 19.798 48.6478 18.934V18.346H43.2118V19.15H47.6878C47.6878 20.014 47.6638 21.322 47.3638 23.11L48.3478 23.206ZM45.8758 21.418H44.9038V24.73C44.0998 24.754 43.3078 24.766 42.6238 24.766L42.7318 25.582C44.6398 25.582 47.1718 25.534 49.4038 25.174L49.3438 24.454C48.2518 24.586 47.0518 24.658 45.8758 24.706V21.418ZM52.7038 21.67H50.9878V17.17H50.0038V27.934H50.9878V22.498H52.7038V21.67ZM54.8029 19.99C54.8029 19.018 55.5709 18.346 56.6389 18.346C57.6949 18.346 58.4629 19.018 58.4629 19.99C58.4629 20.95 57.6949 21.634 56.6389 21.634C55.5709 21.634 54.8029 20.95 54.8029 19.99ZM61.5709 19.246V20.686H59.3029C59.3629 20.47 59.3989 20.23 59.3989 19.99C59.3989 19.726 59.3629 19.474 59.2909 19.246H61.5709ZM61.5709 21.466V22.69H62.5549V17.17H61.5709V18.466H58.8589C58.3669 17.89 57.5749 17.542 56.6389 17.542C55.0309 17.542 53.8669 18.538 53.8669 19.99C53.8669 21.418 55.0309 22.426 56.6389 22.426C57.5989 22.438 58.3909 22.066 58.8949 21.466H61.5709ZM56.6149 27.01V25.834H62.5549V23.242H55.6189V24.022H61.5829V25.09H55.6429V27.79H62.9629V27.01H56.6149Z" fill="#919191"/>
<path d="M26.2914 64.4159H19.9055C19.5845 64.4159 19.3245 64.1741 19.3245 63.8756C19.3245 63.5771 19.5845 63.3352 19.9055 63.3352H26.2914C27.3966 63.3352 28.2958 62.499 28.2958 61.4711C28.2958 60.4433 27.3966 59.6071 26.2914 59.6071C25.1861 59.6071 24.287 60.4433 24.287 61.4711C24.287 61.7697 24.0269 62.0115 23.7059 62.0115C23.3849 62.0115 23.1249 61.7697 23.1249 61.4711C23.1249 59.8475 24.5455 58.5264 26.2914 58.5264C28.0373 58.5264 29.4579 59.8475 29.4579 61.4711C29.4579 63.0948 28.0373 64.4159 26.2914 64.4159Z" fill="#F6A576" stroke="#F6A576" strokeWidth="0.25"/>
<path d="M33.431 66.6689H18.2249C17.904 66.6689 17.6439 66.4271 17.6439 66.1286C17.6439 65.8301 17.904 65.5882 18.2249 65.5882H33.431C34.5085 65.5882 35.3849 64.7732 35.3849 63.7711C35.3849 62.7691 34.5083 61.954 33.431 61.954C32.3538 61.954 31.4771 62.7691 31.4771 63.7711C31.4771 64.0696 31.2171 64.3115 30.8961 64.3115C30.5751 64.3115 30.3151 64.0696 30.3151 63.7711C30.3151 62.1733 31.7129 60.8734 33.4312 60.8734C35.1496 60.8734 36.5474 62.1733 36.5474 63.7711C36.5474 65.369 35.1496 66.6689 33.4312 66.6689H33.431Z" fill="#F6A576" stroke="#F6A576" strokeWidth="0.25"/>
<path d="M30.1825 73.5659C28.5077 73.5659 27.1452 72.2988 27.1452 70.7413C27.1452 70.4428 27.4053 70.201 27.7263 70.201C28.0473 70.201 28.3073 70.4428 28.3073 70.7413C28.3073 71.7028 29.1484 72.485 30.1825 72.485C31.2166 72.485 32.0576 71.7028 32.0576 70.7413C32.0576 69.7798 31.2166 68.9974 30.1825 68.9974H21.7152C21.3942 68.9974 21.1341 68.7556 21.1341 68.4571C21.1341 68.1586 21.3942 67.9167 21.7152 67.9167H30.1823C31.857 67.9167 33.2195 69.1838 33.2195 70.7413C33.2195 72.2988 31.857 73.5659 30.1823 73.5659H30.1825Z" fill="#F6A576" stroke="#F6A576" strokeWidth="0.25"/>
<path d="M48.9478 66.234C47.3998 65.706 46.3438 64.362 46.3438 62.91V61.722H45.3598V62.826C45.3598 64.47 44.3158 65.934 42.6838 66.522L43.1998 67.302C44.4598 66.822 45.4198 65.838 45.8638 64.578C46.3438 65.682 47.2678 66.57 48.4318 67.002L48.9478 66.234ZM47.6638 71.154C46.0678 71.154 45.0958 70.71 45.0958 69.966C45.0958 69.21 46.0678 68.766 47.6638 68.766C49.2478 68.766 50.2198 69.21 50.2198 69.966C50.2198 70.71 49.2478 71.154 47.6638 71.154ZM47.6638 67.998C45.4678 67.998 44.1118 68.706 44.1118 69.966C44.1118 71.214 45.4678 71.922 47.6638 71.922C49.8478 71.922 51.2038 71.214 51.2038 69.966C51.2038 68.706 49.8478 67.998 47.6638 67.998ZM51.0838 63.954V61.182H50.0998V67.698H51.0838V64.77H52.6798V63.954H51.0838ZM62.8669 64.686C60.9589 64.41 59.0749 63.198 59.0749 61.83V61.35H58.0669V61.83C58.0669 63.234 56.1949 64.41 54.2749 64.686L54.6349 65.454C56.3029 65.19 57.8989 64.338 58.5709 63.102C59.2549 64.326 60.8389 65.19 62.4949 65.454L62.8669 64.686ZM58.5709 71.166C56.8669 71.166 55.8709 70.758 55.8709 70.014C55.8709 69.282 56.8669 68.862 58.5709 68.862C60.2509 68.862 61.2469 69.282 61.2469 70.014C61.2469 70.758 60.2509 71.166 58.5709 71.166ZM58.5709 68.106C56.2669 68.106 54.8749 68.79 54.8749 70.014C54.8749 71.25 56.2669 71.934 58.5709 71.934C60.8629 71.934 62.2429 71.25 62.2429 70.014C62.2429 68.79 60.8629 68.106 58.5709 68.106ZM53.6989 66.306V67.11H63.4309V66.306H53.6989Z" fill="#919191"/>
<path d="M36.3681 114.399C36.3794 114.652 36.1832 114.863 35.9393 114.863H30.0606C29.8492 114.863 29.6676 114.703 29.6371 114.485C29.4609 113.216 28.409 112.242 27.1382 112.242C27.1271 112.242 27.1163 112.242 27.1053 112.242C25.7257 112.26 24.613 113.426 24.613 114.863H18.2523C18.0084 114.863 17.8122 114.652 17.8235 114.399C18.0569 109.293 22.1188 105.228 27.0957 105.228H27.1053C32.0779 105.233 36.1346 109.296 36.3681 114.399Z" fill="#F28B8B"/>
<path d="M34.6998 114.863H30.0606C29.8491 114.863 29.6676 114.703 29.637 114.485C29.4608 113.216 28.4089 112.242 27.1381 112.242C27.1271 112.242 27.1162 112.242 27.1052 112.242C25.849 112.259 24.8139 113.227 24.6392 114.485C24.6086 114.703 24.4272 114.863 24.2156 114.863H19.6617C19.6617 110.578 22.9877 107.101 27.1052 107.058C27.1304 107.058 27.1552 107.058 27.1805 107.058C31.3334 107.058 34.6998 110.552 34.6998 114.863Z" fill="#F6C1A3"/>
<path d="M32.8831 114.863H30.0606C29.8492 114.863 29.6677 114.702 29.6371 114.485C29.4609 113.216 28.409 112.242 27.1382 112.242C27.1272 112.242 27.1163 112.242 27.1053 112.242C25.8491 112.258 24.814 113.227 24.6392 114.485C24.6087 114.702 24.4273 114.863 24.2157 114.863H21.2875C21.2875 111.539 23.8832 108.845 27.0852 108.845C27.0919 108.845 27.0986 108.845 27.1053 108.845C30.2983 108.856 32.8831 111.546 32.8831 114.863Z" fill="#AED292"/>
<path d="M31.3627 114.863H30.0608C29.8493 114.863 29.6678 114.703 29.6372 114.485C29.461 113.216 28.4091 112.242 27.1383 112.242C27.1273 112.242 27.1164 112.242 27.1054 112.242C25.8492 112.259 24.8141 113.227 24.6393 114.485C24.6241 114.594 24.6129 114.706 24.6131 114.863C24.4942 114.867 24.3215 114.863 24.2158 114.863H22.9139C22.9139 112.452 24.7874 110.496 27.1054 110.479C27.1164 110.478 27.1273 110.478 27.1383 110.478C29.471 110.478 31.3627 112.441 31.3627 114.863Z" fill="#84D2D2"/>
<path d="M43.8958 108.578C43.8958 107.522 44.6878 106.778 45.7438 106.778C46.7998 106.778 47.5918 107.522 47.5918 108.578C47.5918 109.634 46.7998 110.378 45.7438 110.378C44.6878 110.378 43.8958 109.634 43.8958 108.578ZM48.5518 108.578C48.5518 107.018 47.3518 105.926 45.7438 105.926C44.1358 105.926 42.9358 107.018 42.9358 108.578C42.9358 110.138 44.1358 111.23 45.7438 111.23C47.3518 111.23 48.5518 110.138 48.5518 108.578ZM45.3718 112.286H44.3878V115.694H51.5638V114.89H45.3718V112.286ZM51.0838 108.446V105.17H50.0998V113.09H51.0838V109.262H52.6678V108.446H51.0838ZM59.4469 107.966V108.77H61.5709V111.59H62.5669V105.182H61.5709V107.966H59.4469ZM60.0469 110.414C58.4869 109.862 57.4309 108.506 57.4309 107.126V106.754H59.7949V105.962H54.0469V106.754H56.4469V107.126C56.4469 108.674 55.3429 110.126 53.7349 110.714L54.2509 111.494C55.5109 111.014 56.5069 110.006 56.9629 108.758C57.4309 109.862 58.3549 110.75 59.5549 111.182L60.0469 110.414ZM59.0149 115.166C57.3949 115.166 56.4109 114.71 56.4109 113.93C56.4109 113.15 57.3949 112.682 59.0149 112.682C60.6349 112.682 61.6189 113.15 61.6189 113.93C61.6189 114.71 60.6349 115.166 59.0149 115.166ZM59.0149 111.926C56.8069 111.926 55.4269 112.658 55.4269 113.93C55.4269 115.202 56.8069 115.934 59.0149 115.934C61.2229 115.934 62.6029 115.202 62.6029 113.93C62.6029 112.658 61.2229 111.926 59.0149 111.926Z" fill="#919191"/>
<path d="M33.0914 152.134C33.0001 151.988 32.8217 151.904 32.6021 151.904H27.8815L29.2519 145.529C29.2739 145.426 29.2903 145.274 29.1757 145.154C29.1057 145.08 29.0028 145.038 28.8937 145.038C28.6734 145.038 28.5478 145.198 28.5011 145.259L21.1515 154.705C21.0273 154.865 21.0074 155.041 21.0966 155.189C21.1858 155.336 21.3642 155.421 21.5852 155.421H26.1377L24.7378 162.568C24.7179 162.671 24.7042 162.822 24.8181 162.94C24.8881 163.013 24.9896 163.054 25.0974 163.054C25.3225 163.054 25.4501 162.882 25.492 162.825L33.0475 152.618C33.1669 152.456 33.1827 152.28 33.0914 152.134Z" fill="#84D2D2"/>
<path d="M50.2558 150.634C50.2558 151.474 50.2558 152.266 49.9678 153.37L50.9278 153.478C51.2278 152.374 51.2278 151.498 51.2278 150.634V149.722H43.8958V150.514H50.2558V150.634ZM47.5558 159.154C45.8758 159.154 44.7958 158.698 44.7958 157.954C44.7958 157.186 45.8758 156.73 47.5558 156.73C49.2478 156.73 50.3278 157.186 50.3278 157.954C50.3278 158.698 49.2478 159.154 47.5558 159.154ZM47.5558 155.974C45.2638 155.974 43.8118 156.706 43.8118 157.954C43.8118 159.178 45.2638 159.922 47.5558 159.922C49.8478 159.922 51.3118 159.178 51.3118 157.954C51.3118 156.706 49.8478 155.974 47.5558 155.974ZM47.7118 154.186V152.122H46.7278V154.186H42.7558V154.978H52.4398V154.186H47.7118ZM57.2149 150.994H59.8909V154.522H57.2149V150.994ZM59.0509 157.786V155.314H62.5189V154.522H60.8749V150.994H62.5429V150.202H54.5629V150.994H56.2309V154.522H54.5869V155.314H58.0549V157.786H53.6989V158.59H63.4549V157.786H59.0509Z" fill="#919191"/>
<path d="M28.2095 205.616C28.3893 205.788 28.6791 205.788 28.859 205.616C28.9489 205.53 28.9939 205.418 28.9939 205.306C28.9939 205.194 28.9489 205.081 28.859 204.996L27.5574 203.755V203.201L27.6024 203.044L28.207 203.621C28.3868 203.793 28.6766 203.793 28.8565 203.621C28.9465 203.535 28.9914 203.423 28.9914 203.311C28.9914 203.199 28.9465 203.087 28.8565 203.001L27.8822 202.071L28.4143 200.227L30.353 200.708L30.7102 201.98C30.7752 202.214 31.0275 202.352 31.2723 202.29C31.5172 202.228 31.6621 201.987 31.5971 201.753L31.3748 200.964L31.5172 200.999C31.5172 200.999 31.5321 200.999 31.5396 201.004L32.0443 201.283L32.519 202.98C32.5839 203.213 32.8362 203.352 33.0811 203.29C33.3259 203.228 33.4708 202.987 33.4058 202.753L32.9986 201.305L34.5151 200.916C34.7199 200.864 34.8548 200.687 34.8548 200.494C34.8548 200.456 34.8498 200.417 34.8398 200.379C34.7749 200.145 34.5226 200.007 34.2777 200.069L32.5015 200.525L31.9993 200.248L31.8794 200.131L32.7063 199.919C32.9112 199.866 33.0461 199.69 33.0461 199.497C33.0461 199.458 33.0411 199.42 33.0311 199.382C32.9661 199.148 32.7138 199.01 32.469 199.072L31.1374 199.413L29.7309 198.051L31.1374 196.689L32.469 197.03C32.7138 197.092 32.9661 196.953 33.0311 196.72C33.0411 196.681 33.0461 196.643 33.0461 196.605C33.0461 196.412 32.9112 196.235 32.7063 196.183L31.8794 195.97L31.9993 195.854L32.5015 195.577L34.2777 196.03C34.5226 196.092 34.7749 195.954 34.8398 195.72C34.8498 195.682 34.8548 195.644 34.8548 195.605C34.8548 195.412 34.7199 195.236 34.5151 195.183L32.9986 194.794L33.4058 193.346C33.4708 193.11 33.3259 192.871 33.0811 192.809C32.8362 192.747 32.5839 192.886 32.519 193.12L32.0443 194.816L31.5421 195.093L31.3748 195.133L31.5971 194.343C31.6646 194.11 31.5172 193.869 31.2723 193.807C31.0275 193.745 30.7752 193.883 30.7102 194.117L30.353 195.388L28.4143 195.87L27.8822 194.026L28.8565 193.096C28.9465 193.01 28.9914 192.898 28.9914 192.786C28.9914 192.673 28.9465 192.561 28.8565 192.475C28.6766 192.304 28.3868 192.304 28.207 192.475L27.6024 193.053L27.5574 192.895V192.342L28.859 191.101C28.9489 191.015 28.9939 190.903 28.9939 190.791C28.9939 190.679 28.9489 190.567 28.859 190.481C28.6791 190.309 28.3893 190.309 28.2095 190.481L27.1002 191.54L25.9885 190.476C25.8086 190.304 25.5188 190.304 25.339 190.476C25.1591 190.648 25.1591 190.925 25.339 191.097L26.6381 192.337V192.891L26.5931 193.048L25.9885 192.471C25.8086 192.299 25.5188 192.299 25.339 192.471C25.1591 192.642 25.1591 192.919 25.339 193.091L26.3133 194.021L25.7812 195.865L23.8425 195.384L23.4853 194.112C23.4203 193.878 23.168 193.74 22.9232 193.802C22.6783 193.864 22.5309 194.102 22.5984 194.339L22.8207 195.128L22.6534 195.088L22.1512 194.811L21.674 193.115C21.6091 192.881 21.3568 192.743 21.1119 192.805C20.8671 192.867 20.7222 193.108 20.7872 193.341L21.1944 194.79L19.6779 195.178C19.4331 195.24 19.2882 195.481 19.3532 195.715C19.4181 195.949 19.6704 196.087 19.9153 196.025L21.6915 195.572L22.1937 195.849L22.3136 195.966L21.4867 196.178C21.2418 196.24 21.0969 196.481 21.1619 196.715C21.2269 196.949 21.4792 197.087 21.724 197.025L23.0556 196.684L24.4621 198.046L23.0556 199.408L21.724 199.067C21.4792 199.005 21.2269 199.143 21.1619 199.377C21.0969 199.611 21.2418 199.852 21.4867 199.914L22.3136 200.126L22.1937 200.243L21.6915 200.52L19.9153 200.064C19.6704 200.002 19.4181 200.141 19.3532 200.374C19.2857 200.608 19.4331 200.849 19.6779 200.911L21.1944 201.3L20.7872 202.748C20.7197 202.982 20.8671 203.223 21.1119 203.285C21.3568 203.347 21.6091 203.209 21.674 202.975L22.1512 201.279L22.6534 201.002L22.8182 200.961L22.5959 201.751C22.5284 201.987 22.6758 202.226 22.9207 202.288C23.1655 202.35 23.4178 202.211 23.4828 201.978L23.84 200.706L25.7787 200.224L26.3108 202.068L25.3365 202.999C25.1566 203.17 25.1566 203.447 25.3365 203.619C25.5164 203.791 25.8061 203.791 25.986 203.619L26.5906 203.042L26.6356 203.199V203.753L25.3365 204.993C25.1566 205.165 25.1566 205.442 25.3365 205.613C25.5164 205.785 25.8061 205.785 25.986 205.613L27.0952 204.554L28.2045 205.613L28.2095 205.616ZM27.5574 199.902L27.0977 201.491L26.6381 199.9L26.5431 199.575C26.4757 199.344 26.2284 199.208 25.986 199.267L25.6463 199.353L23.9724 199.768L25.1866 198.592L25.4339 198.354C25.6113 198.182 25.6113 197.91 25.4339 197.738L25.1866 197.5L23.9724 196.324L25.6438 196.739L25.986 196.825C26.2284 196.884 26.4782 196.748 26.5431 196.517L26.6381 196.192L27.0977 194.601L27.5574 196.19L27.6524 196.517C27.7198 196.748 27.9671 196.884 28.2095 196.825L28.5517 196.739L30.2256 196.324L29.0114 197.5L28.7641 197.741C28.5867 197.912 28.5867 198.184 28.7641 198.356L29.0114 198.597L30.2256 199.771L28.5517 199.356L28.212 199.272C27.9696 199.213 27.7198 199.349 27.6549 199.58L27.5599 199.907L27.5574 199.902Z" fill="#83B3DE"/>
<path d="M49.3798 196.782H50.8678V199.698H51.8158V193.182H50.8678V195.978H49.3798V193.374H48.4558V199.314H49.3798V196.782ZM47.7118 197.562C46.4398 197.814 45.3598 197.886 44.2438 197.898V194.034H43.2718V198.726H43.9558C45.2158 198.726 46.3918 198.666 47.8198 198.378L47.7118 197.562ZM48.2638 203.142C46.6558 203.142 45.6478 202.674 45.6478 201.894C45.6478 201.102 46.6558 200.634 48.2638 200.634C49.8718 200.634 50.8918 201.102 50.8918 201.894C50.8918 202.674 49.8718 203.142 48.2638 203.142ZM48.2638 199.866C46.0678 199.866 44.6758 200.61 44.6758 201.894C44.6758 203.166 46.0678 203.922 48.2638 203.922C50.4718 203.922 51.8638 203.166 51.8638 201.894C51.8638 200.61 50.4718 199.866 48.2638 199.866ZM54.1669 193.854V194.658H58.0669C57.8869 196.482 56.2909 197.886 53.6749 198.594L54.0829 199.374C57.2269 198.51 59.1229 196.578 59.1229 193.854H54.1669ZM55.0549 200.766H61.0669V203.934H62.0509V199.974H55.0549V200.766ZM63.6469 195.894H62.0509V193.158H61.0669V199.482H62.0509V196.71H63.6469V195.894Z" fill="#919191"/>
</svg>
