<svg width="62" height="62" viewBox="0 0 62 62" fill="none" xmlns="http://www.w3.org/2000/svg">
<path d="M16.289 31.034C16.289 26.6448 18.4023 22.3653 21.8114 19.6153C31.2396 12.0138 45.7121 18.943 45.7121 31.034C45.7121 35.4219 43.6622 39.7186 40.2478 42.4778C30.9821 49.9657 16.289 42.9084 16.289 31.034Z" fill="#F28B8B"/>
<path d="M36.2378 13.6806C36.2352 13.7955 36.2735 13.9078 36.3686 14.0121C36.7054 14.3806 37.4332 14.6805 37.9747 14.8773C38.4833 15.0622 39.3048 15.2946 39.5082 15.0252C39.5188 15.012 39.5267 14.9961 39.5333 14.9803C39.7658 14.3991 40.0762 11.9106 39.0657 11.4906C38.4621 11.2396 37.5943 12.1563 37.3777 12.3412C37.0911 12.5856 36.251 13.1654 36.2378 13.6819V13.6806Z" fill="#F28B8B"/>
<path d="M46.951 22.4577C46.8678 22.537 46.815 22.644 46.8084 22.7853C46.7859 23.2833 47.0884 24.0097 47.3327 24.5315C47.5613 25.0215 47.9773 25.7678 48.3128 25.7202C48.33 25.7176 48.3458 25.7136 48.3617 25.707C48.9363 25.4613 50.9162 23.9199 50.4988 22.9081C50.2492 22.3032 48.9878 22.3375 48.7038 22.3151C48.3287 22.286 47.3248 22.1011 46.951 22.4564V22.4577Z" fill="#F28B8B"/>
<path d="M48.3195 36.2383C48.2046 36.2356 48.0923 36.2739 47.9879 36.369C47.6194 36.7058 47.3196 37.4336 47.1228 37.9752C46.9379 38.4837 46.7054 39.3053 46.9748 39.5087C46.9881 39.5192 47.0039 39.5272 47.0198 39.5338C47.5996 39.7662 50.0894 40.0766 50.5094 39.0662C50.7604 38.4626 49.8437 37.5948 49.6588 37.3781C49.4144 37.0915 48.8346 36.2515 48.3181 36.2383H48.3195Z" fill="#F28B8B"/>
<path d="M39.5436 46.9514C39.4644 46.8682 39.3574 46.8154 39.216 46.8088C38.7181 46.7863 37.9916 47.0888 37.4699 47.3332C36.9798 47.5617 36.2336 47.9777 36.2811 48.3132C36.2838 48.3304 36.2877 48.3463 36.2943 48.3621C36.54 48.9367 38.0814 50.9166 39.0932 50.4992C39.6981 50.2496 39.6638 48.9882 39.6863 48.7042C39.7153 48.3291 39.9002 47.3252 39.5449 46.9514H39.5436Z" fill="#F28B8B"/>
<path d="M25.7621 48.3199C25.7647 48.205 25.7264 48.0928 25.6313 47.9884C25.2945 47.6199 24.5667 47.3201 24.0252 47.1233C23.5166 46.9383 22.6951 46.7059 22.4917 46.9753C22.4811 46.9885 22.4732 47.0044 22.4666 47.0202C22.2341 47.6014 21.9237 50.0899 22.9341 50.5099C23.5378 50.7609 24.4056 49.8442 24.6222 49.6593C24.9088 49.4149 25.7489 48.8351 25.7621 48.3186V48.3199Z" fill="#F28B8B"/>
<path d="M22.4574 15.0504C22.5366 15.1336 22.6436 15.1865 22.7849 15.1931C23.2829 15.2155 24.0093 14.9131 24.5311 14.6687C25.0211 14.4402 25.7674 14.0241 25.7198 13.6886C25.7172 13.6715 25.7132 13.6556 25.7066 13.6398C25.461 13.0652 23.9195 11.0852 22.9078 11.5026C22.3028 11.7523 22.3372 13.0137 22.3147 13.2977C22.2856 13.6728 22.1007 14.6766 22.456 15.0504H22.4574Z" fill="#F28B8B"/>
<path d="M32.0398 4.13481C31.3464 2.35431 30.5895 2.35431 29.8882 4.13481C29.2093 5.89814 27.9716 8.65739 27.5186 9.99013C27.0457 11.2832 27.9056 12.6437 28.9649 13.069C30.0639 13.4758 31.8628 13.4758 32.9631 13.069C34.0185 12.6424 34.8889 11.2819 34.4094 9.99013C33.9577 8.66928 32.724 5.90079 32.0398 4.13481Z" fill="#F28B8B"/>
<path d="M50.7314 12.7389C51.5001 10.9901 50.9652 10.4538 49.2098 11.2173C47.4821 11.9847 44.6568 13.0599 43.3941 13.682C42.1459 14.2618 41.7919 15.8323 42.2397 16.8824C42.7284 17.947 44.0017 19.2203 45.0663 19.709C46.1137 20.1541 47.6921 19.8067 48.2667 18.5546C48.8809 17.3011 49.9666 14.4718 50.7314 12.7389Z" fill="#F28B8B"/>
<path d="M57.8651 32.0402C59.6456 31.3467 59.6456 30.5899 57.8651 29.8885C56.1017 29.2096 53.3425 27.972 52.0098 27.5189C50.7167 27.0461 49.3562 27.9059 48.9309 28.9653C48.5241 30.0642 48.5241 31.8632 48.9309 32.9635C49.3575 34.0188 50.718 34.8893 52.0098 34.4098C53.3306 33.9581 56.0991 32.7244 57.8651 32.0402Z" fill="#F28B8B"/>
<path d="M49.2612 50.7318C51.01 51.5006 51.5462 50.9656 50.7828 49.2102C50.0154 47.4826 48.9402 44.6573 48.3181 43.3945C47.7382 42.1463 46.1677 41.7924 45.1177 42.2401C44.0531 42.7288 42.7798 44.0021 42.2911 45.0667C41.8459 46.1142 42.1933 47.6926 43.4455 48.2671C44.699 48.8813 47.5282 49.9671 49.2612 50.7318Z" fill="#F28B8B"/>
<path d="M29.9608 57.8655C30.6543 59.646 31.4111 59.646 32.1125 57.8655C32.7914 56.1022 34.029 53.343 34.4821 52.0102C34.9549 50.7171 34.0951 49.3566 33.0358 48.9313C31.9368 48.5245 30.1378 48.5245 29.0376 48.9313C27.9822 49.358 27.1118 50.7184 27.5912 52.0102C28.043 53.3311 29.2766 56.0996 29.9608 57.8655Z" fill="#F28B8B"/>
<path d="M11.2684 49.2616C10.4997 51.0104 11.0346 51.5467 12.79 50.7832C14.5177 50.0158 17.343 48.9406 18.6057 48.3185C19.8539 47.7387 20.2079 46.1682 19.7602 45.1181C19.2714 44.0535 17.9981 42.7802 16.9335 42.2915C15.8861 41.8464 14.3077 42.1938 13.7331 43.4459C13.1189 44.6994 12.0332 47.5287 11.2684 49.2616Z" fill="#F28B8B"/>
<path d="M12.7386 11.2689C10.9897 10.5001 10.4535 11.0351 11.2169 12.7905C11.9843 14.5181 13.0595 17.3434 13.6816 18.6062C14.2615 19.8544 15.832 20.2084 16.882 19.7606C17.9466 19.2719 19.2199 17.9986 19.7087 16.934C20.1538 15.8865 19.8064 14.3081 18.5542 13.7336C17.3008 13.1194 14.4715 12.0336 12.7386 11.2689Z" fill="#F28B8B"/>
<path d="M15.05 39.544C15.1333 39.4648 15.1861 39.3578 15.1927 39.2164C15.2151 38.7185 14.9127 37.992 14.6683 37.4703C14.4398 36.9802 14.0237 36.234 13.6882 36.2815C13.6711 36.2842 13.6552 36.2881 13.6394 36.2947C13.0648 36.5404 11.0849 38.0818 11.5022 39.0936C11.7519 39.6986 13.0133 39.6642 13.2973 39.6867C13.6724 39.7157 14.6762 39.9006 15.05 39.5453V39.544Z" fill="#F28B8B"/>
<path d="M13.6802 25.7625C13.7951 25.7651 13.9074 25.7268 14.0118 25.6317C14.3803 25.2949 14.6801 24.5671 14.8769 24.0255C15.0618 23.517 15.2943 22.6954 15.0248 22.492C15.0116 22.4815 14.9958 22.4735 14.9799 22.4669C14.4001 22.2345 11.9103 21.9241 11.4903 22.9345C11.2393 23.5381 12.156 24.4059 12.3409 24.6226C12.5852 24.9092 13.1651 25.7492 13.6815 25.7625H13.6802Z" fill="#F28B8B"/>
<path d="M4.13448 29.9612C2.35398 30.6546 2.35398 31.4114 4.13448 32.1128C5.89781 32.7917 8.65706 34.0294 9.98979 34.4824C11.2829 34.9553 12.6434 34.0954 13.0687 33.0361C13.4755 31.9371 13.4755 30.1382 13.0687 29.0379C12.642 27.9825 11.2816 27.1121 9.98979 27.5916C8.66894 28.0433 5.90045 29.277 4.13448 29.9612Z" fill="#F28B8B"/>
</svg>
