<svg width="8" height="93" viewBox="0 0 8 93" fill="none" xmlns="http://www.w3.org/2000/svg">
<path d="M4.32312 92.7549C2.35699 92.7549 0.763123 91.161 0.763123 89.1949L0.763123 74.3624L7.88311 74.3624L7.88311 89.1949C7.88311 91.161 6.28925 92.7549 4.32312 92.7549Z" fill="#83B3DE"/>
<rect x="0.763123" y="55.9699" width="18.3925" height="7.11999" transform="rotate(-90 0.763123 55.9699)" fill="#AED292"/>
<rect x="0.763123" y="74.3624" width="18.3925" height="7.11999" transform="rotate(-90 0.763123 74.3624)" fill="#84D2D2"/>
<rect x="0.763123" y="37.5774" width="18.3925" height="7.11999" transform="rotate(-90 0.763123 37.5774)" fill="#F6C1A3"/>
<path d="M0.763123 19.1848L0.763123 4.35232C0.763123 2.38619 2.35699 0.792322 4.32312 0.792322C6.28925 0.792322 7.88311 2.38619 7.88311 4.35232L7.88311 19.1848L0.763123 19.1848Z" fill="#F28B8B"/>
</svg>
