<svg width="76" height="350" viewBox="0 0 76 350" fill="none" xmlns="http://www.w3.org/2000/svg">
<path d="M9.67932 349.565C4.36068 349.565 0.0490723 345.253 0.0490724 339.935L0.0490731 279.705L19.3096 279.705L19.3096 339.935C19.3096 345.253 14.998 349.565 9.67932 349.565Z" fill="#83B3DE"/>
<rect x="0.0490723" y="209.846" width="69.8599" height="19.2605" transform="rotate(-90 0.0490723 209.846)" fill="#AED292"/>
<rect x="0.0490723" y="279.705" width="69.8599" height="19.2605" transform="rotate(-90 0.0490723 279.705)" fill="#84D2D2"/>
<rect x="0.0490723" y="139.986" width="69.8599" height="19.2605" transform="rotate(-90 0.0490723 139.986)" fill="#F6C1A3"/>
<path d="M0.0490723 70.1255L0.049073 9.89587C0.049073 4.57723 4.36068 0.265625 9.67932 0.265625C14.998 0.265625 19.3096 4.57723 19.3096 9.89587L19.3096 70.1255L0.0490723 70.1255Z" fill="#F28B8B"/>
<path d="M44.6543 318.381H48.2543V324.501H49.4783V311.517H48.2543V317.301H44.6543V311.901H43.4303V323.709H44.6543V318.381ZM41.7503 320.445C38.8703 320.997 36.4943 321.117 34.0943 321.117V313.221H32.8223V322.221H34.0943C36.5663 322.221 38.9183 322.101 41.9183 321.549L41.7503 320.445ZM42.6143 331.677C39.1583 331.677 36.8783 330.597 36.8783 328.845C36.8783 327.069 39.1583 325.965 42.6143 325.965C46.0703 325.965 48.3503 327.069 48.3503 328.845C48.3503 330.597 46.0703 331.677 42.6143 331.677ZM42.6143 324.933C38.2943 324.933 35.6303 326.349 35.6303 328.845C35.6303 331.317 38.2943 332.733 42.6143 332.733C46.9343 332.733 49.5983 331.317 49.5983 328.845C49.5983 326.349 46.9343 324.933 42.6143 324.933ZM54.6844 312.933V314.013H63.0364C62.7484 318.069 59.2444 321.165 53.8204 322.677L54.3244 323.709C60.5164 321.981 64.3804 318.141 64.3804 312.933H54.6844ZM56.4844 326.157H68.8684V332.805H70.1404V325.101H56.4844V326.157ZM73.4764 317.157H70.1404V311.469H68.8684V324.045H70.1404V318.237H73.4764V317.157Z" fill="#333333"/>
<path d="M47.1263 242.819C47.1263 244.499 47.1263 246.083 46.5503 248.243L47.7743 248.411C48.3503 246.227 48.3503 244.547 48.3503 242.819V240.971H33.9983V242.051H47.1263V242.819ZM41.2223 260.027C37.5983 260.027 35.1503 258.923 35.1503 257.219C35.1503 255.515 37.5983 254.387 41.2223 254.387C44.8463 254.387 47.3183 255.515 47.3183 257.219C47.3183 258.923 44.8463 260.027 41.2223 260.027ZM41.2223 253.355C36.7103 253.355 33.8783 254.795 33.8783 257.219C33.8783 259.643 36.7103 261.059 41.2223 261.059C45.7343 261.059 48.5663 259.643 48.5663 257.219C48.5663 254.795 45.7343 253.355 41.2223 253.355ZM41.2943 249.971V245.651H40.0223V249.971H31.6703V251.051H50.8943V249.971H41.2943ZM60.3484 243.107H66.2764V250.643H60.3484V243.107ZM63.9484 257.243V251.723H71.1004V250.643H67.5484V243.107H71.1004V242.027H55.5244V243.107H59.1004V250.643H55.5484V251.723H62.6764V257.243H53.7004V258.323H73.0684V257.243H63.9484Z" fill="#333333"/>
<path d="M33.4223 174.865C33.4223 172.561 35.2223 170.833 37.6223 170.833C39.9743 170.833 41.7743 172.561 41.7743 174.865C41.7743 177.169 39.9743 178.897 37.6223 178.897C35.2223 178.897 33.4223 177.169 33.4223 174.865ZM43.0223 174.865C43.0223 171.817 40.7183 169.705 37.6223 169.705C34.4783 169.705 32.1983 171.817 32.1983 174.865C32.1983 177.889 34.4783 180.025 37.6223 180.025C40.7183 180.025 43.0223 177.889 43.0223 174.865ZM36.3263 182.329H35.0543V188.929H49.1183V187.849H36.3263V182.329ZM48.0623 174.817V168.121H46.7903V183.937H48.0623V175.921H51.3983V174.817H48.0623ZM65.0044 173.905V174.985H69.8044V180.841H71.0764V168.145H69.8044V173.905H65.0044ZM66.1084 178.897C63.2044 177.841 60.7324 175.153 60.7324 172.249V170.929H65.7244V169.849H54.3964V170.929H59.4844V172.273C59.4844 175.513 56.8924 178.393 53.9404 179.521L54.5884 180.553C57.1084 179.545 59.2924 177.409 60.1564 174.721C61.0204 177.073 63.0604 178.993 65.4604 179.905L66.1084 178.897ZM64.1884 188.377C60.7084 188.377 58.4764 187.297 58.4764 185.521C58.4764 183.745 60.7084 182.665 64.1884 182.665C67.6684 182.665 69.9244 183.745 69.9244 185.521C69.9244 187.297 67.6684 188.377 64.1884 188.377ZM64.1884 181.633C59.8444 181.633 57.2044 183.025 57.2044 185.521C57.2044 188.017 59.8444 189.409 64.1884 189.409C68.5084 189.409 71.1724 188.017 71.1724 185.521C71.1724 183.025 68.5084 181.633 64.1884 181.633Z" fill="#333333"/>
<path d="M43.8143 106.864C40.9103 105.784 38.3663 103 38.3663 99.9275V97.5035H37.1423V99.8795C37.1423 103.36 34.6943 106.24 31.6943 107.44L32.3663 108.472C34.8623 107.44 36.9503 105.304 37.8143 102.568C38.6783 104.992 40.7663 106.936 43.1183 107.872L43.8143 106.864ZM41.3423 116.68C37.9343 116.68 35.7263 115.648 35.7263 113.992C35.7263 112.312 37.9343 111.28 41.3423 111.28C44.7743 111.28 46.9823 112.312 46.9823 113.992C46.9823 115.648 44.7743 116.68 41.3423 116.68ZM41.3423 110.248C37.0463 110.248 34.4783 111.592 34.4783 113.992C34.4783 116.368 37.0463 117.712 41.3423 117.712C45.6383 117.712 48.2303 116.368 48.2303 113.992C48.2303 111.592 45.6383 110.248 41.3423 110.248ZM48.0623 102.304V96.4475H46.7903V109.6H48.0623V103.408H51.3983V102.304H48.0623ZM71.7484 103.816C68.6044 103.336 63.9964 100.96 63.9964 97.9595V96.8075H62.7004V97.9595C62.7004 101.032 58.1644 103.336 54.9484 103.816L55.4284 104.848C58.4524 104.296 62.1004 102.544 63.3484 99.9035C64.6204 102.52 68.3164 104.296 71.2684 104.848L71.7484 103.816ZM63.3484 116.704C59.7004 116.704 57.3724 115.696 57.3724 113.992C57.3724 112.312 59.7004 111.304 63.3484 111.304C66.9964 111.304 69.3244 112.312 69.3244 113.992C69.3244 115.696 66.9964 116.704 63.3484 116.704ZM63.3484 110.272C58.8124 110.272 56.1004 111.616 56.1004 113.992C56.1004 116.416 58.8124 117.736 63.3484 117.736C67.8844 117.736 70.5964 116.416 70.5964 113.992C70.5964 111.616 67.8844 110.272 63.3484 110.272ZM53.7004 106.888V107.944H72.9724V106.888H53.7004Z" fill="#333333"/>
<path d="M42.6143 36.6777C43.2623 32.4537 43.2623 29.5497 43.2623 28.0377V27.2457H32.6063V28.3017H42.0143C42.0143 29.8617 41.9663 32.6697 41.3423 36.5577L42.6143 36.6777ZM37.5743 33.3417H36.3263V40.0377C34.5743 40.0857 32.8943 40.0857 31.3823 40.0857L31.5983 41.2137C35.4383 41.1897 40.5263 41.0937 45.0623 40.4217L44.9663 39.4617C42.6383 39.7497 40.0703 39.9177 37.5743 39.9897V33.3417ZM51.4463 33.8937H47.7263V24.7737H46.4543V46.1097H47.7263V35.0457H51.4463V33.8937ZM55.3084 30.3897C55.3084 28.2777 57.0844 26.6457 59.4844 26.6457C61.8844 26.6457 63.6604 28.2777 63.6604 30.3897C63.6604 32.5017 61.8844 34.1577 59.4844 34.1577C57.0844 34.1577 55.3084 32.5017 55.3084 30.3897ZM69.7804 28.6617V32.0457H64.5964C64.7884 31.5417 64.8844 30.9897 64.8844 30.3897C64.8844 29.7657 64.7644 29.1897 64.5724 28.6617H69.7804ZM69.7804 33.1017V35.8857H71.0524V24.7737H69.7804V27.6057H63.9724C63.0364 26.3577 61.4284 25.5897 59.4844 25.5897C56.3404 25.5897 54.0844 27.5337 54.0844 30.3897C54.0844 33.2457 56.3404 35.2137 59.4844 35.2137C61.4764 35.2137 63.1084 34.4217 64.0444 33.1017H69.7804ZM58.8604 44.7177V41.8137H71.0524V37.0617H57.5644V38.1177H69.8044V40.7817H57.6124V45.7737H71.9644V44.7177H58.8604Z" fill="#333333"/>
</svg>
