<svg width="111" height="21" viewBox="0 0 111 21" fill="none" xmlns="http://www.w3.org/2000/svg">
<path d="M8.6651 20.5967C6.935 20.5964 5.24945 20.0604 3.85028 19.0654C2.45111 18.0704 1.41022 16.6677 0.876953 15.0585C1.35453 15.5467 1.92835 15.9353 2.56377 16.2007C3.19919 16.4661 3.88303 16.6028 4.57399 16.6026H13.9595L11.3153 14.0173C10.9311 13.6425 10.715 13.1339 10.7145 12.6032C10.7139 12.0726 10.9289 11.5635 11.3123 11.1879C11.6956 10.8123 12.2159 10.601 12.7586 10.6005C13.3013 10.5999 13.822 10.8102 14.2061 11.185L20.3458 17.1879C20.63 17.4679 20.8232 17.8239 20.901 18.211C20.9789 18.5981 20.9379 18.999 20.7832 19.3634C20.6286 19.7277 20.3671 20.0392 20.0318 20.2587C19.6966 20.4782 19.3024 20.5958 18.8989 20.5967H8.6651Z" fill="#38B1DF"/>
<path d="M15.2711 0.981995C16.9192 1.50201 18.3561 2.51951 19.3755 3.88824C20.3949 5.25698 20.9442 6.90647 20.9445 8.59964V16.3614L16.8504 12.3614V4.5967C16.8506 3.92112 16.7107 3.25252 16.4393 2.63125C16.1679 2.00998 15.7705 1.44894 15.2711 0.981995Z" fill="#38B1DF"/>
<path d="M4.57109 15.5967H5.95785C5.52223 15.2215 5.17327 14.7599 4.93417 14.2426C4.69507 13.7254 4.5713 13.1643 4.57109 12.5967V8.59962C4.57188 7.53821 5.00348 6.5205 5.77111 5.76997C6.53873 5.01944 7.57962 4.59746 8.6652 4.59668H12.7593C13.3399 4.59688 13.9137 4.71789 14.4428 4.95167C14.9718 5.18545 15.4439 5.52664 15.8276 5.95256V4.59668C15.8276 4.07114 15.7217 3.55076 15.5159 3.06526C15.3102 2.57977 15.0085 2.13869 14.6283 1.76721C14.2481 1.39574 13.7968 1.10116 13.3001 0.900317C12.8034 0.699471 12.271 0.596294 11.7335 0.596681H8.6652C7.5903 0.596681 6.52593 0.803684 5.53285 1.20587C4.53978 1.60805 3.63744 2.19754 2.87738 2.94068C2.11731 3.68383 1.51439 4.56606 1.10304 5.53702C0.691697 6.50798 0.47998 7.54866 0.47998 8.59962V11.5996C0.480778 12.66 0.912156 13.6766 1.6793 14.4261C2.44645 15.1756 3.48658 15.5967 4.57109 15.5967V15.5967Z" fill="#001143"/>
<path d="M51.6429 5.59661H50.3614C50.305 5.5941 50.2487 5.60311 50.1961 5.62306C50.1435 5.64301 50.0957 5.67347 50.0558 5.71249C50.0159 5.75152 49.9847 5.79824 49.9643 5.84969C49.9439 5.90114 49.9347 5.95619 49.9373 6.01132V12.2642C49.9445 12.4303 49.9164 12.596 49.8547 12.7508C49.793 12.9057 49.6991 13.0464 49.5789 13.1639C49.4587 13.2814 49.3149 13.3732 49.1565 13.4335C48.9981 13.4938 48.8286 13.5213 48.6588 13.5142H44.3932C44.2234 13.5213 44.0539 13.4938 43.8955 13.4335C43.7372 13.3732 43.5933 13.2814 43.4731 13.1639C43.3529 13.0464 43.259 12.9057 43.1973 12.7508C43.1356 12.596 43.1075 12.4303 43.1148 12.2642V6.01426C43.1173 5.959 43.1081 5.90383 43.0877 5.85223C43.0673 5.80064 43.0362 5.75373 42.9964 5.71448C42.9565 5.67523 42.9087 5.64449 42.8561 5.6242C42.8035 5.60392 42.7471 5.59452 42.6906 5.59661H41.4121C41.3556 5.59413 41.2992 5.60314 41.2464 5.62306C41.1936 5.64298 41.1457 5.67339 41.1055 5.71236C41.0654 5.75134 41.0339 5.79803 41.0132 5.84948C40.9924 5.90094 40.9828 5.95604 40.985 6.01132V12.2642C40.9663 12.7067 41.0417 13.1482 41.2063 13.5608C41.371 13.9734 41.6214 14.3481 41.9417 14.6612C42.262 14.9744 42.6452 15.2192 43.0672 15.3802C43.4891 15.5412 43.9406 15.6149 44.3932 15.5966H48.6588C49.1118 15.6153 49.5638 15.5419 49.9861 15.3809C50.4085 15.2198 50.7921 14.9748 51.1125 14.6612C51.433 14.3476 51.6833 13.9724 51.8476 13.5593C52.0119 13.1462 52.0866 12.7042 52.0671 12.2613V6.01426C52.0701 5.95889 52.0612 5.90352 52.0409 5.85172C52.0207 5.79991 51.9896 5.75283 51.9497 5.71348C51.9097 5.67414 51.8618 5.64341 51.809 5.62328C51.7561 5.60315 51.6996 5.59407 51.6429 5.59661Z" fill="#001143"/>
<path d="M77.6485 15.5966H76.3821C76.3254 15.5987 76.269 15.5893 76.2162 15.569C76.1634 15.5488 76.1155 15.5181 76.0754 15.4789C76.0353 15.4397 76.0039 15.3928 75.9832 15.3412C75.9624 15.2896 75.9528 15.2344 75.9549 15.179V8.93191C75.9622 8.76587 75.9341 8.60017 75.8724 8.44531C75.8107 8.29045 75.7168 8.14981 75.5966 8.0323C75.4764 7.91478 75.3325 7.82296 75.1742 7.76264C75.0158 7.70233 74.8463 7.67483 74.6765 7.68191H70.4019C70.232 7.67483 70.0626 7.70233 69.9042 7.76264C69.7458 7.82296 69.602 7.91478 69.4818 8.0323C69.3616 8.14981 69.2677 8.29045 69.206 8.44531C69.1443 8.60017 69.1162 8.76587 69.1234 8.93191V15.1848C69.1255 15.2402 69.1159 15.2955 69.0952 15.3471C69.0745 15.3987 69.0431 15.4456 69.003 15.4848C68.9629 15.524 68.9149 15.5546 68.8622 15.5749C68.8094 15.5952 68.7529 15.6046 68.6962 15.6025H67.4178C67.3611 15.6046 67.3046 15.5952 67.2518 15.5749C67.1991 15.5546 67.1511 15.524 67.111 15.4848C67.0709 15.4456 67.0395 15.3987 67.0188 15.3471C66.9981 15.2955 66.9885 15.2402 66.9906 15.1848V8.93191C66.971 8.4888 67.0458 8.04655 67.2103 7.63322C67.3748 7.21989 67.6254 6.8445 67.9462 6.53089C68.2669 6.21727 68.6509 5.97227 69.0736 5.81144C69.4963 5.65061 69.9487 5.57745 70.4019 5.59662H74.6644C75.1174 5.57748 75.5694 5.65055 75.992 5.81121C76.4145 5.97187 76.7983 6.2166 77.119 6.52989C77.4397 6.84319 77.6904 7.21821 77.8551 7.63119C78.0197 8.04417 78.0949 8.4861 78.0757 8.92897V15.1848C78.077 15.2398 78.0667 15.2943 78.0457 15.3453C78.0246 15.3962 77.993 15.4423 77.953 15.4809C77.913 15.5194 77.8654 15.5496 77.813 15.5695C77.7607 15.5894 77.7047 15.5986 77.6485 15.5966Z" fill="#001143"/>
<path d="M79.3542 7.26429V6.01429C79.3516 5.95878 79.3609 5.90335 79.3815 5.85154C79.402 5.79974 79.4334 5.75269 79.4736 5.71339C79.5138 5.6741 79.5619 5.64343 79.6149 5.62332C79.6679 5.60322 79.7246 5.59414 79.7813 5.59664H81.0598V3.51135C81.058 3.45542 81.0682 3.39973 81.0897 3.34785C81.1111 3.29597 81.1434 3.24902 81.1844 3.21001C81.2255 3.171 81.2743 3.14077 81.328 3.12125C81.3816 3.10173 81.4388 3.09335 81.496 3.09665H82.7745C82.8311 3.09458 82.8876 3.10398 82.9404 3.12424C82.9932 3.1445 83.0411 3.17518 83.0812 3.21439C83.1213 3.25359 83.1527 3.30046 83.1734 3.35206C83.1941 3.40366 83.2037 3.45889 83.2016 3.51429V5.59664H85.7586C85.8151 5.59416 85.8715 5.60317 85.9243 5.6231C85.977 5.64302 86.025 5.67343 86.0652 5.7124C86.1053 5.75137 86.1367 5.79806 86.1575 5.84952C86.1782 5.90097 86.1878 5.95608 86.1857 6.01135V7.26135C86.1878 7.31675 86.1782 7.37198 86.1575 7.42358C86.1368 7.47519 86.1054 7.52206 86.0653 7.56126C86.0252 7.60046 85.9773 7.63115 85.9245 7.6514C85.8717 7.67166 85.8152 7.68106 85.7586 7.679H83.2016V12.2643C83.1944 12.4303 83.2225 12.596 83.2842 12.7509C83.3459 12.9057 83.4398 13.0464 83.56 13.1639C83.6802 13.2814 83.824 13.3732 83.9824 13.4336C84.1408 13.4939 84.3103 13.5214 84.4801 13.5143H85.7586C85.8152 13.5122 85.8717 13.5216 85.9245 13.5419C85.9773 13.5621 86.0252 13.5928 86.0653 13.632C86.1054 13.6712 86.1368 13.7181 86.1575 13.7697C86.1782 13.8213 86.1878 13.8765 86.1857 13.9319V15.1819C86.1878 15.2373 86.1782 15.2926 86.1575 15.3442C86.1368 15.3958 86.1054 15.4426 86.0653 15.4818C86.0252 15.521 85.9773 15.5517 85.9245 15.572C85.8717 15.5922 85.8152 15.6016 85.7586 15.5996H84.4801C84.027 15.6183 83.5749 15.5448 83.1523 15.3838C82.7298 15.2228 82.3461 14.9778 82.0254 14.6643C81.7047 14.3508 81.4541 13.9756 81.2895 13.5625C81.1248 13.1493 81.0497 12.7073 81.0688 12.2643V7.68194H79.7813C79.7247 7.684 79.6682 7.67461 79.6154 7.65435C79.5626 7.63409 79.5147 7.6034 79.4746 7.5642C79.4345 7.525 79.4031 7.47813 79.3824 7.42652C79.3617 7.37492 79.3521 7.31969 79.3542 7.26429Z" fill="#001143"/>
<path d="M103.657 15.5967H110.052C110.109 15.5988 110.166 15.5894 110.218 15.5691C110.271 15.5489 110.319 15.5182 110.359 15.479C110.399 15.4398 110.431 15.3929 110.451 15.3413C110.472 15.2897 110.482 15.2345 110.48 15.1791V13.9291C110.482 13.8737 110.472 13.8184 110.451 13.7668C110.431 13.7152 110.399 13.6684 110.359 13.6292C110.319 13.59 110.271 13.5593 110.218 13.539C110.166 13.5188 110.109 13.5094 110.052 13.5114H103.657C103.487 13.5185 103.318 13.491 103.159 13.4307C103.001 13.3704 102.857 13.2786 102.737 13.161C102.617 13.0435 102.523 12.9029 102.461 12.748C102.4 12.5932 102.371 12.4275 102.379 12.2614V8.93201C102.371 8.76597 102.4 8.60028 102.461 8.44542C102.523 8.29056 102.617 8.14992 102.737 8.0324C102.857 7.91489 103.001 7.82306 103.159 7.76275C103.318 7.70243 103.487 7.67494 103.657 7.68202H110.052C110.109 7.68408 110.166 7.67469 110.218 7.65443C110.271 7.63417 110.319 7.60348 110.359 7.56428C110.399 7.52507 110.431 7.47821 110.451 7.4266C110.472 7.375 110.482 7.31977 110.48 7.26437V6.01437C110.482 5.9591 110.472 5.90399 110.451 5.85254C110.431 5.80108 110.399 5.7544 110.359 5.71542C110.319 5.67645 110.271 5.64604 110.218 5.62612C110.165 5.60619 110.109 5.59718 110.052 5.59966H103.657C103.204 5.58053 102.752 5.6536 102.33 5.81426C101.907 5.97492 101.523 6.21964 101.203 6.53294C100.882 6.84623 100.631 7.22126 100.467 7.63424C100.302 8.04722 100.227 8.48915 100.246 8.93201V12.2673C100.228 12.7098 100.303 13.1512 100.468 13.5636C100.633 13.9761 100.884 14.3506 101.205 14.6634C101.525 14.9763 101.909 15.2208 102.331 15.3814C102.753 15.5421 103.205 15.6154 103.657 15.5967V15.5967Z" fill="#001143"/>
<path d="M61.4496 5.59663H55.0512C54.9948 5.59412 54.9385 5.60312 54.8859 5.62308C54.8333 5.64303 54.7855 5.67349 54.7456 5.71251C54.7057 5.75153 54.6745 5.79826 54.6541 5.84971C54.6337 5.90116 54.6245 5.95621 54.627 6.01133V7.26133C54.6245 7.31659 54.6337 7.37176 54.6541 7.42335C54.6745 7.47495 54.7056 7.52186 54.7454 7.5611C54.7853 7.60035 54.8331 7.63109 54.8857 7.65138C54.9383 7.67167 54.9947 7.68107 55.0512 7.67898H61.4496C61.6194 7.6719 61.7889 7.69939 61.9473 7.75971C62.1056 7.82002 62.2495 7.91185 62.3697 8.02936C62.4899 8.14687 62.5838 8.28752 62.6455 8.44238C62.7072 8.59724 62.7353 8.76294 62.728 8.92898V9.76427H56.3327C55.9929 9.75015 55.6538 9.80513 55.3369 9.92573C55.02 10.0463 54.7321 10.2299 54.4915 10.4649C54.2509 10.6999 54.0628 10.9811 53.939 11.2909C53.8153 11.6006 53.7587 11.932 53.7727 12.2643V13.0996C53.7587 13.4318 53.8153 13.7632 53.939 14.073C54.0628 14.3827 54.2509 14.6639 54.4915 14.8989C54.7321 15.1339 55.02 15.3175 55.3369 15.4381C55.6538 15.5587 55.9929 15.6137 56.3327 15.5996H64.0065C64.1197 15.6046 64.2327 15.5865 64.3383 15.5464C64.4439 15.5064 64.5398 15.4452 64.6199 15.3669C64.7 15.2886 64.7625 15.1948 64.8035 15.0916C64.8444 14.9883 64.863 14.8778 64.8578 14.7672V8.93192C64.8779 8.48896 64.8034 8.04676 64.6393 7.63343C64.4751 7.22011 64.2248 6.84468 63.9043 6.53102C63.5838 6.21735 63.2 5.97231 62.7774 5.81145C62.3548 5.65059 61.9026 5.57743 61.4496 5.59663V5.59663ZM62.728 13.5143H56.7568C56.6437 13.5193 56.5307 13.5012 56.4251 13.4611C56.3195 13.4211 56.2236 13.3599 56.1435 13.2816C56.0634 13.2033 56.0008 13.1095 55.9599 13.0063C55.9189 12.903 55.9004 12.7926 55.9055 12.6819V12.2643C55.9004 12.1536 55.9189 12.0432 55.9599 11.9399C56.0008 11.8366 56.0634 11.7429 56.1435 11.6645C56.2236 11.5862 56.3195 11.5251 56.4251 11.485C56.5307 11.445 56.6437 11.4269 56.7568 11.4319H62.728V13.5143Z" fill="#001143"/>
<path d="M95.1289 5.59661H90.8663C90.4134 5.57747 89.9613 5.65055 89.5388 5.8112C89.1163 5.97186 88.7325 6.21659 88.4118 6.52989C88.0911 6.84318 87.8404 7.21821 87.6757 7.63119C87.511 8.04417 87.4359 8.4861 87.4551 8.92896V12.2643C87.4364 12.707 87.5118 13.1487 87.6767 13.5615C87.8415 13.9743 88.0922 14.3491 88.4128 14.6623C88.7334 14.9755 89.117 15.2203 89.5393 15.3811C89.9617 15.5419 90.4135 15.6153 90.8663 15.5966H97.2617C97.3184 15.5987 97.3749 15.5893 97.4276 15.569C97.4804 15.5488 97.5283 15.5181 97.5684 15.4789C97.6085 15.4397 97.6399 15.3928 97.6606 15.3412C97.6814 15.2896 97.691 15.2344 97.6889 15.179V13.929C97.691 13.8736 97.6814 13.8183 97.6606 13.7667C97.6399 13.7151 97.6085 13.6683 97.5684 13.6291C97.5283 13.5899 97.4804 13.5592 97.4276 13.5389C97.3749 13.5186 97.3184 13.5093 97.2617 13.5113H90.8663C90.6965 13.5184 90.527 13.4909 90.3687 13.4306C90.2103 13.3703 90.0664 13.2784 89.9462 13.1609C89.826 13.0434 89.7321 12.9028 89.6704 12.7479C89.6087 12.5931 89.5806 12.4274 89.5879 12.2613V11.429H97.6889C97.8022 11.4336 97.9152 11.4151 98.0208 11.3747C98.1264 11.3343 98.2223 11.2729 98.3024 11.1943C98.3824 11.1158 98.4449 11.0218 98.4858 10.9184C98.5268 10.815 98.5453 10.7044 98.5402 10.5937V8.92602C98.5589 8.4834 98.4835 8.04179 98.3186 7.62916C98.1537 7.21653 97.903 6.84187 97.5823 6.5289C97.2617 6.21592 96.878 5.97145 96.4557 5.81098C96.0334 5.6505 95.5816 5.5775 95.1289 5.59661V5.59661ZM96.4104 9.76426H89.5879V8.92896C89.5806 8.76292 89.6087 8.59722 89.6704 8.44236C89.7321 8.28751 89.826 8.14686 89.9462 8.02935C90.0664 7.91183 90.2103 7.82001 90.3687 7.75969C90.527 7.69938 90.6965 7.67189 90.8663 7.67896H95.1289C95.2989 7.67192 95.4685 7.69941 95.627 7.75969C95.7855 7.81998 95.9296 7.91175 96.05 8.02922C96.1704 8.14668 96.2646 8.28729 96.3267 8.44215C96.3887 8.59702 96.4172 8.76278 96.4104 8.92896V9.76426Z" fill="#001143"/>
<path d="M38.8522 12.9496V8.93197C38.8522 8.0474 38.4928 7.19905 37.853 6.57356C37.2133 5.94808 36.3456 5.59668 35.4409 5.59668H31.1753C30.2714 5.59668 29.4045 5.94777 28.7653 6.5727C28.1262 7.19764 27.7671 8.04524 27.7671 8.92903V12.2643C27.7679 13.1479 28.1272 13.995 28.7662 14.6198C29.4052 15.2446 30.2717 15.5959 31.1753 15.5967H37.7933C38.0001 15.5917 38.2009 15.528 38.3714 15.4135C38.5419 15.2991 38.6747 15.1386 38.7537 14.9517C38.8328 14.7648 38.8546 14.5595 38.8165 14.3607C38.7784 14.162 38.6821 13.9783 38.5393 13.832L35.5552 10.9143C35.3526 10.7352 35.0873 10.639 34.8143 10.6457C34.5412 10.6524 34.2812 10.7615 34.088 10.9504C33.8949 11.1392 33.7833 11.3934 33.7764 11.6604C33.7696 11.9274 33.8679 12.1868 34.0511 12.3849L35.2153 13.5231H31.1753C31.0055 13.5302 30.836 13.5027 30.6777 13.4424C30.5193 13.3821 30.3754 13.2903 30.2552 13.1728C30.135 13.0552 30.0411 12.9146 29.9794 12.7597C29.9178 12.6049 29.8896 12.4392 29.8969 12.2731V8.93197C29.8896 8.76593 29.9178 8.60023 29.9794 8.44537C30.0411 8.29051 30.135 8.14987 30.2552 8.03236C30.3754 7.91484 30.5193 7.82302 30.6777 7.7627C30.836 7.70239 31.0055 7.6749 31.1753 7.68197H35.4409C35.6107 7.6749 35.7802 7.70239 35.9386 7.7627C36.097 7.82302 36.2408 7.91484 36.361 8.03236C36.4812 8.14987 36.5751 8.29051 36.6368 8.44537C36.6985 8.60023 36.7266 8.76593 36.7194 8.93197V10.8643L38.8522 12.9496Z" fill="#001143"/>
</svg>
